<svg width="1728" height="1117" viewBox="0 0 1728 1117" fill="none" xmlns="http://www.w3.org/2000/svg">
<g clip-path="url(#clip0_24_739)">
<rect width="1728" height="1117" fill="url(#paint0_linear_24_739)"/>
<path d="M622.381 -145.472C857.97 -218.715 1092.93 -215.275 1282.36 -150.514C1471.79 -85.7538 1615.67 40.3194 1669.14 212.333C1722.62 384.346 1675.59 569.772 1556.27 730.521C1436.95 891.269 1245.36 1027.32 1009.77 1100.57C774.18 1173.81 539.22 1170.37 349.792 1105.61C160.364 1040.85 16.4854 914.776 -36.9929 742.763C-90.471 570.75 -43.4368 385.323 75.8816 224.574C195.2 63.8257 386.792 -72.2281 622.381 -145.472Z" stroke="#037AA2" stroke-width="0.5"/>
<path d="M682.911 136.899C819.563 78.9531 959.453 64.6427 1075.16 88.3464C1190.86 112.05 1282.37 173.767 1322.27 267.871C1362.18 361.975 1342.92 470.66 1279.53 570.308C1216.13 669.957 1108.59 760.565 971.94 818.511C835.288 876.457 695.397 890.767 579.695 867.063C463.993 843.359 372.483 781.642 332.58 687.538C292.676 593.434 311.929 484.749 375.325 385.101C438.721 285.453 546.259 194.845 682.911 136.899Z" stroke="#037AA2" stroke-width="0.1"/>
<path d="M618.198 -2.90048C805.719 -82.4164 997.681 -102.052 1156.45 -69.5258C1315.22 -36.999 1440.78 47.6874 1495.53 176.806C1550.28 305.925 1523.87 455.054 1436.87 591.793C1349.88 728.531 1202.31 852.867 1014.79 932.383C827.272 1011.9 635.31 1031.54 476.542 999.009C317.774 966.482 192.213 881.796 137.462 752.678C82.7106 623.559 109.125 474.429 196.118 337.69C283.111 200.952 430.676 76.6156 618.198 -2.90048Z" stroke="#037AA2" stroke-width="0.25"/>
<g filter="url(#filter0_f_24_739)">
<circle cx="1611" cy="400" r="132" fill="#037AA2"/>
</g>
<g filter="url(#filter1_f_24_739)">
<circle cx="94.5" cy="613.5" r="148.5" fill="#037AA2"/>
</g>
<g filter="url(#filter2_f_24_739)">
<path d="M844 159L846.97 184.03L872 187L846.97 189.97L844 215L841.03 189.97L816 187L841.03 184.03L844 159Z" fill="url(#paint1_radial_24_739)"/>
</g>
<g filter="url(#filter3_f_24_739)">
<path d="M1546 890L1546.64 895.364L1552 896L1546.64 896.636L1546 902L1545.36 896.636L1540 896L1545.36 895.364L1546 890Z" fill="url(#paint2_radial_24_739)"/>
</g>
<g filter="url(#filter4_f_24_739)">
<path d="M1415 997L1415.64 1002.36L1421 1003L1415.64 1003.64L1415 1009L1414.36 1003.64L1409 1003L1414.36 1002.36L1415 997Z" fill="url(#paint3_radial_24_739)"/>
</g>
<g filter="url(#filter5_f_24_739)">
<path d="M1672 738L1673.27 748.727L1684 750L1673.27 751.273L1672 762L1670.73 751.273L1660 750L1670.73 748.727L1672 738Z" fill="url(#paint4_radial_24_739)"/>
</g>
<g filter="url(#filter6_f_24_739)">
<path d="M212 637L213.273 647.727L224 649L213.273 650.273L212 661L210.727 650.273L200 649L210.727 647.727L212 637Z" fill="url(#paint5_radial_24_739)"/>
</g>
<g filter="url(#filter7_f_24_739)">
<path d="M1628 338L1629.27 348.727L1640 350L1629.27 351.273L1628 362L1626.73 351.273L1616 350L1626.73 348.727L1628 338Z" fill="url(#paint6_radial_24_739)"/>
</g>
<g filter="url(#filter8_f_24_739)">
<path d="M1019 649L1020.27 659.727L1031 661L1020.27 662.273L1019 673L1017.73 662.273L1007 661L1017.73 659.727L1019 649Z" fill="url(#paint7_radial_24_739)"/>
</g>
<g filter="url(#filter9_f_24_739)">
<path d="M1082 212L1082.64 217.364L1088 218L1082.64 218.636L1082 224L1081.36 218.636L1076 218L1081.36 217.364L1082 212Z" fill="url(#paint8_radial_24_739)"/>
</g>
<g filter="url(#filter10_f_24_739)">
<path d="M1305 77L1305.64 82.3636L1311 83L1305.64 83.6364L1305 89L1304.36 83.6364L1299 83L1304.36 82.3636L1305 77Z" fill="url(#paint9_radial_24_739)"/>
</g>
<g filter="url(#filter11_f_24_739)">
<path d="M368 86L368.636 91.3636L374 92L368.636 92.6364L368 98L367.364 92.6364L362 92L367.364 91.3636L368 86Z" fill="url(#paint10_radial_24_739)"/>
</g>
<g filter="url(#filter12_f_24_739)">
<path d="M151 242L151.636 247.364L157 248L151.636 248.636L151 254L150.364 248.636L145 248L150.364 247.364L151 242Z" fill="url(#paint11_radial_24_739)"/>
</g>
<g filter="url(#filter13_f_24_739)">
<path d="M100 1076L100.636 1081.36L106 1082L100.636 1082.64L100 1088L99.3636 1082.64L94 1082L99.3636 1081.36L100 1076Z" fill="url(#paint12_radial_24_739)"/>
</g>
<g filter="url(#filter14_f_24_739)">
<path d="M1313 615L1314.7 629.303L1329 631L1314.7 632.697L1313 647L1311.3 632.697L1297 631L1311.3 629.303L1313 615Z" fill="url(#paint13_radial_24_739)"/>
</g>
<g filter="url(#filter15_f_24_739)">
<path d="M346 334L347.697 348.303L362 350L347.697 351.697L346 366L344.303 351.697L330 350L344.303 348.303L346 334Z" fill="url(#paint14_radial_24_739)"/>
</g>
<g filter="url(#filter16_f_24_739)">
<path d="M51 97L52.6971 111.303L67 113L52.6971 114.697L51 129L49.3029 114.697L35 113L49.3029 111.303L51 97Z" fill="url(#paint15_radial_24_739)"/>
</g>
<g filter="url(#filter17_f_24_739)">
<path d="M539 918L540.697 932.303L555 934L540.697 935.697L539 950L537.303 935.697L523 934L537.303 932.303L539 918Z" fill="url(#paint16_radial_24_739)"/>
</g>
<g filter="url(#filter18_f_24_739)">
<path d="M1694 30L1695.7 44.3029L1710 46L1695.7 47.6971L1694 62L1692.3 47.6971L1678 46L1692.3 44.3029L1694 30Z" fill="url(#paint17_radial_24_739)"/>
</g>
<g filter="url(#filter19_f_24_739)">
<path d="M667 210L668.697 224.303L683 226L668.697 227.697L667 242L665.303 227.697L651 226L665.303 224.303L667 210Z" fill="url(#paint18_radial_24_739)"/>
</g>
<g filter="url(#filter20_f_24_739)">
<path d="M523 559L526.818 591.182L559 595L526.818 598.818L523 631L519.182 598.818L487 595L519.182 591.182L523 559Z" fill="url(#paint19_radial_24_739)"/>
</g>
<g filter="url(#filter21_f_24_739)">
<path d="M1628 992L1631.39 1020.61L1660 1024L1631.39 1027.39L1628 1056L1624.61 1027.39L1596 1024L1624.61 1020.61L1628 992Z" fill="url(#paint20_radial_24_739)"/>
</g>
<g filter="url(#filter22_f_24_739)">
<path d="M1494 59L1496.86 83.1362L1521 86L1496.86 88.8638L1494 113L1491.14 88.8638L1467 86L1491.14 83.1362L1494 59Z" fill="url(#paint21_radial_24_739)"/>
</g>
</g>
<defs>
<filter id="filter0_f_24_739" x="1229" y="18" width="764" height="764" filterUnits="userSpaceOnUse" color-interpolation-filters="sRGB">
<feFlood flood-opacity="0" result="BackgroundImageFix"/>
<feBlend mode="normal" in="SourceGraphic" in2="BackgroundImageFix" result="shape"/>
<feGaussianBlur stdDeviation="125" result="effect1_foregroundBlur_24_739"/>
</filter>
<filter id="filter1_f_24_739" x="-404" y="115" width="997" height="997" filterUnits="userSpaceOnUse" color-interpolation-filters="sRGB">
<feFlood flood-opacity="0" result="BackgroundImageFix"/>
<feBlend mode="normal" in="SourceGraphic" in2="BackgroundImageFix" result="shape"/>
<feGaussianBlur stdDeviation="175" result="effect1_foregroundBlur_24_739"/>
</filter>
<filter id="filter2_f_24_739" x="812" y="155" width="64" height="64" filterUnits="userSpaceOnUse" color-interpolation-filters="sRGB">
<feFlood flood-opacity="0" result="BackgroundImageFix"/>
<feBlend mode="normal" in="SourceGraphic" in2="BackgroundImageFix" result="shape"/>
<feGaussianBlur stdDeviation="2" result="effect1_foregroundBlur_24_739"/>
</filter>
<filter id="filter3_f_24_739" x="1536" y="886" width="20" height="20" filterUnits="userSpaceOnUse" color-interpolation-filters="sRGB">
<feFlood flood-opacity="0" result="BackgroundImageFix"/>
<feBlend mode="normal" in="SourceGraphic" in2="BackgroundImageFix" result="shape"/>
<feGaussianBlur stdDeviation="2" result="effect1_foregroundBlur_24_739"/>
</filter>
<filter id="filter4_f_24_739" x="1405" y="993" width="20" height="20" filterUnits="userSpaceOnUse" color-interpolation-filters="sRGB">
<feFlood flood-opacity="0" result="BackgroundImageFix"/>
<feBlend mode="normal" in="SourceGraphic" in2="BackgroundImageFix" result="shape"/>
<feGaussianBlur stdDeviation="2" result="effect1_foregroundBlur_24_739"/>
</filter>
<filter id="filter5_f_24_739" x="1656" y="734" width="32" height="32" filterUnits="userSpaceOnUse" color-interpolation-filters="sRGB">
<feFlood flood-opacity="0" result="BackgroundImageFix"/>
<feBlend mode="normal" in="SourceGraphic" in2="BackgroundImageFix" result="shape"/>
<feGaussianBlur stdDeviation="2" result="effect1_foregroundBlur_24_739"/>
</filter>
<filter id="filter6_f_24_739" x="196" y="633" width="32" height="32" filterUnits="userSpaceOnUse" color-interpolation-filters="sRGB">
<feFlood flood-opacity="0" result="BackgroundImageFix"/>
<feBlend mode="normal" in="SourceGraphic" in2="BackgroundImageFix" result="shape"/>
<feGaussianBlur stdDeviation="2" result="effect1_foregroundBlur_24_739"/>
</filter>
<filter id="filter7_f_24_739" x="1612" y="334" width="32" height="32" filterUnits="userSpaceOnUse" color-interpolation-filters="sRGB">
<feFlood flood-opacity="0" result="BackgroundImageFix"/>
<feBlend mode="normal" in="SourceGraphic" in2="BackgroundImageFix" result="shape"/>
<feGaussianBlur stdDeviation="2" result="effect1_foregroundBlur_24_739"/>
</filter>
<filter id="filter8_f_24_739" x="1003" y="645" width="32" height="32" filterUnits="userSpaceOnUse" color-interpolation-filters="sRGB">
<feFlood flood-opacity="0" result="BackgroundImageFix"/>
<feBlend mode="normal" in="SourceGraphic" in2="BackgroundImageFix" result="shape"/>
<feGaussianBlur stdDeviation="2" result="effect1_foregroundBlur_24_739"/>
</filter>
<filter id="filter9_f_24_739" x="1072" y="208" width="20" height="20" filterUnits="userSpaceOnUse" color-interpolation-filters="sRGB">
<feFlood flood-opacity="0" result="BackgroundImageFix"/>
<feBlend mode="normal" in="SourceGraphic" in2="BackgroundImageFix" result="shape"/>
<feGaussianBlur stdDeviation="2" result="effect1_foregroundBlur_24_739"/>
</filter>
<filter id="filter10_f_24_739" x="1295" y="73" width="20" height="20" filterUnits="userSpaceOnUse" color-interpolation-filters="sRGB">
<feFlood flood-opacity="0" result="BackgroundImageFix"/>
<feBlend mode="normal" in="SourceGraphic" in2="BackgroundImageFix" result="shape"/>
<feGaussianBlur stdDeviation="2" result="effect1_foregroundBlur_24_739"/>
</filter>
<filter id="filter11_f_24_739" x="358" y="82" width="20" height="20" filterUnits="userSpaceOnUse" color-interpolation-filters="sRGB">
<feFlood flood-opacity="0" result="BackgroundImageFix"/>
<feBlend mode="normal" in="SourceGraphic" in2="BackgroundImageFix" result="shape"/>
<feGaussianBlur stdDeviation="2" result="effect1_foregroundBlur_24_739"/>
</filter>
<filter id="filter12_f_24_739" x="141" y="238" width="20" height="20" filterUnits="userSpaceOnUse" color-interpolation-filters="sRGB">
<feFlood flood-opacity="0" result="BackgroundImageFix"/>
<feBlend mode="normal" in="SourceGraphic" in2="BackgroundImageFix" result="shape"/>
<feGaussianBlur stdDeviation="2" result="effect1_foregroundBlur_24_739"/>
</filter>
<filter id="filter13_f_24_739" x="90" y="1072" width="20" height="20" filterUnits="userSpaceOnUse" color-interpolation-filters="sRGB">
<feFlood flood-opacity="0" result="BackgroundImageFix"/>
<feBlend mode="normal" in="SourceGraphic" in2="BackgroundImageFix" result="shape"/>
<feGaussianBlur stdDeviation="2" result="effect1_foregroundBlur_24_739"/>
</filter>
<filter id="filter14_f_24_739" x="1293" y="611" width="40" height="40" filterUnits="userSpaceOnUse" color-interpolation-filters="sRGB">
<feFlood flood-opacity="0" result="BackgroundImageFix"/>
<feBlend mode="normal" in="SourceGraphic" in2="BackgroundImageFix" result="shape"/>
<feGaussianBlur stdDeviation="2" result="effect1_foregroundBlur_24_739"/>
</filter>
<filter id="filter15_f_24_739" x="326" y="330" width="40" height="40" filterUnits="userSpaceOnUse" color-interpolation-filters="sRGB">
<feFlood flood-opacity="0" result="BackgroundImageFix"/>
<feBlend mode="normal" in="SourceGraphic" in2="BackgroundImageFix" result="shape"/>
<feGaussianBlur stdDeviation="2" result="effect1_foregroundBlur_24_739"/>
</filter>
<filter id="filter16_f_24_739" x="31" y="93" width="40" height="40" filterUnits="userSpaceOnUse" color-interpolation-filters="sRGB">
<feFlood flood-opacity="0" result="BackgroundImageFix"/>
<feBlend mode="normal" in="SourceGraphic" in2="BackgroundImageFix" result="shape"/>
<feGaussianBlur stdDeviation="2" result="effect1_foregroundBlur_24_739"/>
</filter>
<filter id="filter17_f_24_739" x="519" y="914" width="40" height="40" filterUnits="userSpaceOnUse" color-interpolation-filters="sRGB">
<feFlood flood-opacity="0" result="BackgroundImageFix"/>
<feBlend mode="normal" in="SourceGraphic" in2="BackgroundImageFix" result="shape"/>
<feGaussianBlur stdDeviation="2" result="effect1_foregroundBlur_24_739"/>
</filter>
<filter id="filter18_f_24_739" x="1674" y="26" width="40" height="40" filterUnits="userSpaceOnUse" color-interpolation-filters="sRGB">
<feFlood flood-opacity="0" result="BackgroundImageFix"/>
<feBlend mode="normal" in="SourceGraphic" in2="BackgroundImageFix" result="shape"/>
<feGaussianBlur stdDeviation="2" result="effect1_foregroundBlur_24_739"/>
</filter>
<filter id="filter19_f_24_739" x="647" y="206" width="40" height="40" filterUnits="userSpaceOnUse" color-interpolation-filters="sRGB">
<feFlood flood-opacity="0" result="BackgroundImageFix"/>
<feBlend mode="normal" in="SourceGraphic" in2="BackgroundImageFix" result="shape"/>
<feGaussianBlur stdDeviation="2" result="effect1_foregroundBlur_24_739"/>
</filter>
<filter id="filter20_f_24_739" x="483" y="555" width="80" height="80" filterUnits="userSpaceOnUse" color-interpolation-filters="sRGB">
<feFlood flood-opacity="0" result="BackgroundImageFix"/>
<feBlend mode="normal" in="SourceGraphic" in2="BackgroundImageFix" result="shape"/>
<feGaussianBlur stdDeviation="2" result="effect1_foregroundBlur_24_739"/>
</filter>
<filter id="filter21_f_24_739" x="1592" y="988" width="72" height="72" filterUnits="userSpaceOnUse" color-interpolation-filters="sRGB">
<feFlood flood-opacity="0" result="BackgroundImageFix"/>
<feBlend mode="normal" in="SourceGraphic" in2="BackgroundImageFix" result="shape"/>
<feGaussianBlur stdDeviation="2" result="effect1_foregroundBlur_24_739"/>
</filter>
<filter id="filter22_f_24_739" x="1463" y="55" width="62" height="62" filterUnits="userSpaceOnUse" color-interpolation-filters="sRGB">
<feFlood flood-opacity="0" result="BackgroundImageFix"/>
<feBlend mode="normal" in="SourceGraphic" in2="BackgroundImageFix" result="shape"/>
<feGaussianBlur stdDeviation="2" result="effect1_foregroundBlur_24_739"/>
</filter>
<linearGradient id="paint0_linear_24_739" x1="21" y1="24" x2="1728" y2="1117" gradientUnits="userSpaceOnUse">
<stop stop-color="#00153B"/>
<stop offset="0.379808" stop-color="#001E4F"/>
<stop offset="1" stop-color="#002B63"/>
</linearGradient>
<radialGradient id="paint1_radial_24_739" cx="0" cy="0" r="1" gradientUnits="userSpaceOnUse" gradientTransform="translate(844 188) scale(4.5)">
<stop stop-color="#C3FBFF"/>
<stop offset="1" stop-color="#1A3E79"/>
</radialGradient>
<radialGradient id="paint2_radial_24_739" cx="0" cy="0" r="1" gradientUnits="userSpaceOnUse" gradientTransform="translate(1546 896.214) scale(0.964286)">
<stop stop-color="#C3FBFF"/>
<stop offset="1" stop-color="#1A3E79"/>
</radialGradient>
<radialGradient id="paint3_radial_24_739" cx="0" cy="0" r="1" gradientUnits="userSpaceOnUse" gradientTransform="translate(1415 1003.21) scale(0.964286)">
<stop stop-color="#C3FBFF"/>
<stop offset="1" stop-color="#1A3E79"/>
</radialGradient>
<radialGradient id="paint4_radial_24_739" cx="0" cy="0" r="1" gradientUnits="userSpaceOnUse" gradientTransform="translate(1672 750.429) scale(1.92857)">
<stop stop-color="#C3FBFF"/>
<stop offset="1" stop-color="#1A3E79"/>
</radialGradient>
<radialGradient id="paint5_radial_24_739" cx="0" cy="0" r="1" gradientUnits="userSpaceOnUse" gradientTransform="translate(212 649.429) scale(1.92857)">
<stop stop-color="#C3FBFF"/>
<stop offset="1" stop-color="#1A3E79"/>
</radialGradient>
<radialGradient id="paint6_radial_24_739" cx="0" cy="0" r="1" gradientUnits="userSpaceOnUse" gradientTransform="translate(1628 350.429) scale(1.92857)">
<stop stop-color="#C3FBFF"/>
<stop offset="1" stop-color="#1A3E79"/>
</radialGradient>
<radialGradient id="paint7_radial_24_739" cx="0" cy="0" r="1" gradientUnits="userSpaceOnUse" gradientTransform="translate(1019 661.429) scale(1.92857)">
<stop stop-color="#C3FBFF"/>
<stop offset="1" stop-color="#1A3E79"/>
</radialGradient>
<radialGradient id="paint8_radial_24_739" cx="0" cy="0" r="1" gradientUnits="userSpaceOnUse" gradientTransform="translate(1082 218.214) scale(0.964286)">
<stop stop-color="#C3FBFF"/>
<stop offset="1" stop-color="#1A3E79"/>
</radialGradient>
<radialGradient id="paint9_radial_24_739" cx="0" cy="0" r="1" gradientUnits="userSpaceOnUse" gradientTransform="translate(1305 83.2143) scale(0.964286)">
<stop stop-color="#C3FBFF"/>
<stop offset="1" stop-color="#1A3E79"/>
</radialGradient>
<radialGradient id="paint10_radial_24_739" cx="0" cy="0" r="1" gradientUnits="userSpaceOnUse" gradientTransform="translate(368 92.2143) scale(0.964286)">
<stop stop-color="#C3FBFF"/>
<stop offset="1" stop-color="#1A3E79"/>
</radialGradient>
<radialGradient id="paint11_radial_24_739" cx="0" cy="0" r="1" gradientUnits="userSpaceOnUse" gradientTransform="translate(151 248.214) scale(0.964286)">
<stop stop-color="#C3FBFF"/>
<stop offset="1" stop-color="#1A3E79"/>
</radialGradient>
<radialGradient id="paint12_radial_24_739" cx="0" cy="0" r="1" gradientUnits="userSpaceOnUse" gradientTransform="translate(100 1082.21) scale(0.964286)">
<stop stop-color="#C3FBFF"/>
<stop offset="1" stop-color="#1A3E79"/>
</radialGradient>
<radialGradient id="paint13_radial_24_739" cx="0" cy="0" r="1" gradientUnits="userSpaceOnUse" gradientTransform="translate(1313 631.571) scale(2.57143)">
<stop stop-color="#C3FBFF"/>
<stop offset="1" stop-color="#1A3E79"/>
</radialGradient>
<radialGradient id="paint14_radial_24_739" cx="0" cy="0" r="1" gradientUnits="userSpaceOnUse" gradientTransform="translate(346 350.571) scale(2.57143)">
<stop stop-color="#C3FBFF"/>
<stop offset="1" stop-color="#1A3E79"/>
</radialGradient>
<radialGradient id="paint15_radial_24_739" cx="0" cy="0" r="1" gradientUnits="userSpaceOnUse" gradientTransform="translate(51 113.571) scale(2.57143)">
<stop stop-color="#C3FBFF"/>
<stop offset="1" stop-color="#1A3E79"/>
</radialGradient>
<radialGradient id="paint16_radial_24_739" cx="0" cy="0" r="1" gradientUnits="userSpaceOnUse" gradientTransform="translate(539 934.571) scale(2.57143)">
<stop stop-color="#C3FBFF"/>
<stop offset="1" stop-color="#1A3E79"/>
</radialGradient>
<radialGradient id="paint17_radial_24_739" cx="0" cy="0" r="1" gradientUnits="userSpaceOnUse" gradientTransform="translate(1694 46.5714) scale(2.57143)">
<stop stop-color="#C3FBFF"/>
<stop offset="1" stop-color="#1A3E79"/>
</radialGradient>
<radialGradient id="paint18_radial_24_739" cx="0" cy="0" r="1" gradientUnits="userSpaceOnUse" gradientTransform="translate(667 226.571) scale(2.57143)">
<stop stop-color="#C3FBFF"/>
<stop offset="1" stop-color="#1A3E79"/>
</radialGradient>
<radialGradient id="paint19_radial_24_739" cx="0" cy="0" r="1" gradientUnits="userSpaceOnUse" gradientTransform="translate(523 596.286) scale(5.78571)">
<stop stop-color="#C3FBFF"/>
<stop offset="1" stop-color="#1A3E79"/>
</radialGradient>
<radialGradient id="paint20_radial_24_739" cx="0" cy="0" r="1" gradientUnits="userSpaceOnUse" gradientTransform="translate(1628 1025.14) scale(5.14286)">
<stop stop-color="#C3FBFF"/>
<stop offset="1" stop-color="#1A3E79"/>
</radialGradient>
<radialGradient id="paint21_radial_24_739" cx="0" cy="0" r="1" gradientUnits="userSpaceOnUse" gradientTransform="translate(1494 86.9643) scale(4.33929)">
<stop stop-color="#C3FBFF"/>
<stop offset="1" stop-color="#1A3E79"/>
</radialGradient>
<clipPath id="clip0_24_739">
<rect width="1728" height="1117" fill="white"/>
</clipPath>
</defs>
</svg>
