<svg width="181" height="57" viewBox="0 0 181 57" fill="none" xmlns="http://www.w3.org/2000/svg">
<g filter="url(#filter0_d_14_154)">
<path d="M6.00122 44.2617V6.61832C6.00122 5.60511 6.89248 5.11727 7.33811 5H27.1801C35.342 5.33774 37.4294 12.2707 37.4528 15.695C37.7343 18.6783 35.1309 21.4881 33.794 22.52C37.8469 24.9405 38.2034 28.6884 37.875 30.2598C37.0307 37.0708 31.2376 38.7266 28.4466 38.7032H13.6003L7.6899 44.6839C6.28267 45.4157 5.97777 44.7074 6.00122 44.2617Z" fill="white"/>
<path d="M17.8206 29.3451L13.3878 29.134H13.1768V21.8867L17.8206 22.3089V29.3451Z" fill="#224E9C"/>
<path d="M19.5797 29.4154L19.5093 16.5393H24.2939V29.6265L19.5797 29.4154Z" fill="#224E9C"/>
<path d="M26.1233 29.4154V12.7397H30.9079V29.3451L26.1233 29.4154Z" fill="#224E9C"/>
<path d="M49.041 41V19.6361H55.0009V41H49.041Z" fill="white"/>
<path d="M51.9756 9.09961C53.9458 9.0998 55.543 10.6977 55.543 12.668C55.5428 14.638 53.9457 16.2352 51.9756 16.2354C50.0054 16.2354 48.4074 14.6382 48.4072 12.668C48.4072 10.6976 50.0052 9.09961 51.9756 9.09961Z" fill="#224E9C" stroke="#224E9C" stroke-width="0.2"/>
<path d="M65.9822 27.5V22.5H75.9822V27.5H65.9822Z" fill="white"/>
<path d="M86.3215 41V9H107.322V14.6471H92.7382V22.6471H105.669V28.5765H93.0299V41H86.3215Z" fill="white"/>
<path d="M137.565 9V14.6637H124.042V22.5929H136.518V27.6903H124.042V35.1475H137.661V41H117.661V9H137.565Z" fill="white"/>
<path d="M148 15.0059H156.66V41H162.899V15.0059H171V9H148V15.0059Z" fill="white"/>
</g>
<defs>
<filter id="filter0_d_14_154" x="0" y="-4" width="181" height="66" filterUnits="userSpaceOnUse" color-interpolation-filters="sRGB">
<feFlood flood-opacity="0" result="BackgroundImageFix"/>
<feColorMatrix in="SourceAlpha" type="matrix" values="0 0 0 0 0 0 0 0 0 0 0 0 0 0 0 0 0 0 127 0" result="hardAlpha"/>
<feOffset dx="2" dy="4"/>
<feGaussianBlur stdDeviation="4"/>
<feComposite in2="hardAlpha" operator="out"/>
<feColorMatrix type="matrix" values="0 0 0 0 0.133333 0 0 0 0 0.305882 0 0 0 0 0.611765 0 0 0 1 0"/>
<feBlend mode="normal" in2="BackgroundImageFix" result="effect1_dropShadow_14_154"/>
<feBlend mode="normal" in="SourceGraphic" in2="effect1_dropShadow_14_154" result="shape"/>
</filter>
</defs>
</svg>
